<svg height="60" viewBox="0 0 60 60" width="60" xmlns="http://www.w3.org/2000/svg" xmlns:sketch="http://www.bohemiancoding.com/sketch/ns"><g id="soical" fill="none" fill-rule="evenodd"><g id="social" transform="translate(-273 -138)"><g id="slices" transform="translate(173 138)"/><g id="hexagon-flat" fill="#346da6" transform="translate(173 138)"><path id="Polygon-1" d="m130 0 25.980762 15v30l-25.980762 15-25.980762-15v-30z"/></g><g id="hexagon-black" fill="#000" fill-opacity=".4" transform="translate(177 152)"><path id="Polygon-1" d="m118.635052 41.7478453-18.615814-10.7478453v-7.4329466l23.168616-23.16861659 10.971947 4.06250157-9.164417 9.91441662 8.003906 1.6197573-6.99929 8.2161789 1.24951 8.9220964z"/></g><g id="icon" fill="#fff" transform="translate(182 150)"><path id="facebook" d="m116.462224 35.314313v-17.3153517l-3.518935-.0000001v-5.7396049h3.518935v-3.47096989c0-4.68174419 1.399771-8.05776742 6.525878-8.05776742h6.098258v5.72782097h-4.294105c-2.150361 0-2.640381 1.42893634-2.640381 2.92532099v2.87559435l6.617549.0000005-.90325 5.7396055h-5.714299v17.315351z"/></g></g></g></svg>