<svg height="60" viewBox="0 0 60 60" width="60" xmlns="http://www.w3.org/2000/svg" xmlns:sketch="http://www.bohemiancoding.com/sketch/ns"><g id="soical" fill="none" fill-rule="evenodd"><g id="social" transform="translate(-173 -238)"><g id="slices" transform="translate(173 138)"/><g id="hexagon-flat" fill="#ce6f2d" transform="translate(173 138)"><path id="Polygon-10" d="m30 100 25.9807621 15v30l-25.9807621 15-25.98076211-15v-30z"/></g><g id="hexagon-black" fill="#000" fill-opacity=".4" transform="translate(177 152)"><path id="Polygon-10" d="m25.2684962 145.577666-25.24925831-14.577666v-17.657817l11.08061561-11.342183.9645996 27.953857 28.1514987.562125z"/></g><g id="icon" fill="#fff" transform="translate(182 150)"><path id="instagram" d="m10.3560805 102h21.287839c2.9580816 0 5.3560805 2.405201 5.3560805 5.356081v21.287838c0 2.958082-2.405201 5.356081-5.3560805 5.356081h-21.287839c-2.95808156 0-5.3560805-2.405201-5.3560805-5.356081v-21.287838c0-2.958082 2.40520096-5.356081 5.3560805-5.356081zm19.5907479 13.333333h4.3865049v13.310586c0 1.482283-1.2082523 2.689414-2.6894138 2.689414h-21.287839c-1.48228268 0-2.68941383-1.208252-2.68941383-2.689414v-13.310586h4.38650493c-.2514682.844946-.3865049 1.740037-.3865049 2.666667 0 5.154658 4.1786756 9.333333 9.3333333 9.333333s9.3333333-4.178675 9.3333333-9.333333c0-.92663-.1350367-1.821721-.3865049-2.666667zm-8.9468284 9.333334c3.6818983 0 6.6666667-2.984769 6.6666667-6.666667s-2.9847684-6.666667-6.6666667-6.666667-6.6666667 2.984769-6.6666667 6.666667 2.9847684 6.666667 6.6666667 6.666667zm5.3333333-18.678963c0-.729589.5753403-1.321037 1.3210373-1.321037h5.3579254c.7295888 0 1.3210373.57534 1.3210373 1.321037v5.357925c0 .729589-.5753402 1.321038-1.3210373 1.321038h-5.3579254c-.7295887 0-1.3210373-.575341-1.3210373-1.321038z"/></g></g></g></svg>