<svg height="60" viewBox="0 0 60 60" width="60" xmlns="http://www.w3.org/2000/svg" xmlns:sketch="http://www.bohemiancoding.com/sketch/ns"><g id="soical" fill="none" fill-rule="evenodd"><g id="social" transform="translate(-373 -738)"><g id="slices" transform="translate(173 138)"/><g id="hexagon-flat" fill="#7e4ea3" transform="translate(173 138)"><path id="Polygon-62" d="m230 600 25.980762 15v30l-25.980762 15-25.980762-15v-30z"/></g><g id="hexagon-black" fill="#000" fill-opacity=".4" transform="translate(177 152)"><path id="Polygon-62" d="m223.464102 644.535898-23.444864-13.535898v-15.019238l12.122841-12.122841 22.02642-1.482181 7.980564 8.431319-2.714158 17.758036z"/></g><g id="icon" fill="#fff" transform="translate(182 150)"><path id="yahoo" d="m239.461538 618c0-10.196513-8.264707-18.461538-18.461333-18.461538s-18.461743 8.265025-18.461743 18.461538c-.000411 10.195692 8.264707 18.461538 18.461743 18.461538 10.196626 0 18.461333-8.265846 18.461333-18.461538zm-23.077316-10.384615c1.273956 0 2.308086 1.032513 2.308086 2.308086 0 1.273997-1.033736 2.307298-2.308086 2.307298-1.274744 0-2.307299-1.033301-2.307299-2.307298-.000394-1.275573 1.032555-2.308086 2.307299-2.308086zm9.230769 0c1.273956 0 2.308086 1.032513 2.308086 2.308086 0 1.273997-1.033736 2.307298-2.308086 2.307298-1.274744 0-2.307299-1.033301-2.307299-2.307298-.000393-1.275573 1.032555-2.308086 2.307299-2.308086zm-17.307299 8.076923h25.384616v4.643904h-.052149c-.527108 6.442604-5.979104 11.509942-12.641362 11.509942-6.660654 0-12.111848-5.067338-12.637752-11.509942h-.053353zm23.076923 4.615384h-20.76923v-2.307692h20.76923z"/></g></g></g></svg>