<svg height="60" viewBox="0 0 60 60" width="60" xmlns="http://www.w3.org/2000/svg" xmlns:sketch="http://www.bohemiancoding.com/sketch/ns"><g id="soical" fill="none" fill-rule="evenodd"><g id="social" transform="translate(-173 -138)"><g id="slices" transform="translate(173 138)"/><g id="hexagon-flat" fill="#4186cd" transform="translate(173 138)"><path id="Polygon-1" d="m30 0 25.9807621 15v30l-25.9807621 15-25.98076211-15v-30z"/></g><g id="hexagon-black" fill="#000" fill-opacity=".4" transform="translate(177 152)"><path id="Polygon-1" d="m17.1294107 40.8785629-17.11017281-9.8785629v-15.6116864l12.11292361-12.11292361 6.4342448 10.80309011 9.2982959-10.17933239 5.1032877 20.74722759z"/></g><g id="icon" fill="#fff" transform="translate(182 150)"><path id="twitter" d="m32.0521385 6.43669427c-1.2089539-1.37449277-2.9316-2.25023017-4.838077-2.28196324-3.6604615-.06092794-6.6284077 3.03219236-6.6284077 6.90838497 0 .5501252.0586385 1.0865774.1717154 1.6015572-5.5087846-.3573206-10.3929-3.22590261-13.66195382-7.5499514-.57055384 1.0361399-.89750769 2.24716091-.89750769 3.54442857 0 2.45583803 1.17018462 4.63537683 2.94872308 5.92226703-1.08650769-.0479675-2.10856154-.3768796-3.00219231-.9164654-.00064615.029493-.00064615.0589929-.00064615.0890105 0 3.4295872 2.2848 6.3067451 5.31703849 6.9769758-.556177.1575997-1.1417539.240078-1.7462308.2360697-.42710769-.0028322-.84242308-.0501962-1.24707692-.13524.8433923 2.8126097 3.29118462 4.8649983 6.19176922 4.93286-2.2684846 1.8830683-5.12642307 3.0045653-8.23199999 2.998159-.53501539-.0011037-1.0626-.035675-1.58113846-.1021874 2.93337692 2.0127143 6.41743845 3.1845715 10.16060765 3.1855535 12.1917923.0031987 18.8589693-10.6066422 18.8589693-19.8093844 0-.3019324-.0066231-.6022496-.0192231-.9011167 1.2950538-.9649855 2.4187154-2.17486285 3.3073385-3.55643299-1.1886.53579714-2.4662077.89164962-3.8068154 1.04091888 1.3683923-.84217271 2.419523-2.19004182 2.9143154-3.80637949-1.2808385.77673389-2.6993077 1.33375446-4.2092077 1.62293587z"/></g></g></g></svg>