<svg height="60" viewBox="0 0 60 60" width="60" xmlns="http://www.w3.org/2000/svg" xmlns:sketch="http://www.bohemiancoding.com/sketch/ns"><g id="soical" fill="none" fill-rule="evenodd"><g id="social" transform="translate(-673 -238)"><g id="slices" transform="translate(173 138)"/><g id="hexagon-flat" fill="#ca4738" transform="translate(173 138)"><path id="Polygon-15" d="m530 100 25.980762 15v30l-25.980762 15-25.980762-15v-30z"/></g><g id="hexagon-black" fill="#000" fill-opacity=".4" transform="translate(177 152)"><path id="Polygon-15" d="m525.523357 145.72481-25.504119-14.72481v-17.769238l9.508289-9.508289 11.477356 17.559509 23.113403 5.723267z"/></g><g id="icon" fill="#fff" transform="translate(182 150)"><path id="youtube" d="m540.215816 110.068738s-.374963-2.642634-1.52499-3.806723c-1.457667-1.52712-3.092589-1.534364-3.842088-1.623843-5.366227-.388172-13.415992-.388172-13.415992-.388172h-.017044s-8.049339 0-13.415991.388172c-.749499.089479-2.383569.096723-3.842089 1.623843-1.150027 1.164089-1.524138 3.806723-1.524138 3.806723s-.383484 3.103242-.383484 6.206483v2.909795c0 3.102816.383484 6.206057.383484 6.206057s.374111 2.642635 1.524138 3.806723c1.45852 1.527547 3.374664 1.478546 4.22813 1.638757 3.068302.294431 13.038472.385615 13.038472.385615s8.058287-.012357 13.424514-.400102c.749499-.08948 2.384421-.096723 3.842088-1.62427 1.150027-1.164088 1.52499-3.806723 1.52499-3.806723s.382632-3.103241.382632-6.206057v-2.909795c0-3.103241-.382632-6.206483-.382632-6.206483zm-22.75043 12.641353-.001704-10.774636 10.36175 5.405853z"/></g></g></g></svg>